<svg width="842" height="596" viewBox="0 0 842 596" fill="none" xmlns="http://www.w3.org/2000/svg">
<path fill-rule="evenodd" clip-rule="evenodd" d="M778.311 386.662H783.213L776.541 398.603V405.835H772.026V398.603L765.142 386.662H770.253L774.285 394.963L778.311 386.662ZM760.354 395.425V405.835H757.005V403.782H756.951C755.674 405.723 753.82 406.386 751.182 406.386C742.936 406.386 741.795 399.837 741.795 396.194C741.795 392.305 743.316 386.116 751.835 386.116C757.358 386.116 759.696 389.623 760.186 392.881L755.479 392.879C755.425 392.112 754.964 389.841 751.805 389.841C746.586 389.841 746.637 395.236 746.637 396.331C746.637 397.482 746.743 402.659 751.67 402.659C753.63 402.659 755.805 401.564 756.054 398.904H752.242V395.425H760.354V395.425ZM731.318 396.248C731.318 394.521 731.126 389.841 726.528 389.841C724.052 389.841 721.764 391.184 721.764 396.248C721.764 401.261 724.052 402.658 726.528 402.658C731.099 402.658 731.318 397.864 731.318 396.248ZM716.897 396.248C716.897 391.784 719.017 386.116 726.528 386.116C733.086 386.116 736.161 390.446 736.161 396.248C736.161 402.055 733.086 406.386 726.528 406.386C719.02 406.386 716.897 400.715 716.897 396.248ZM712.106 405.835H698.745V386.662H703.235V402.11H712.106V405.835ZM687.371 396.248C687.371 394.521 687.181 389.841 682.577 389.841C680.102 389.841 677.816 391.184 677.816 396.248C677.819 401.261 680.102 402.658 682.577 402.658C687.154 402.658 687.366 397.864 687.371 396.248ZM672.951 396.248C672.951 391.784 675.067 386.116 682.577 386.116C689.141 386.116 692.213 390.446 692.213 396.248C692.218 402.055 689.138 406.386 682.577 406.386C675.069 406.386 672.949 400.715 672.951 396.248ZM654.252 393.841V405.835H649.762V386.662H654.309L661.819 398.576H661.898V386.662H666.39V405.835H661.819L654.309 393.841H654.252ZM630.907 405.835H626.415V386.662H630.907V393.866H637.816V386.662H642.308V405.835H637.816V397.588H630.907V405.835ZM620.349 399.072C620.046 401.946 618.441 406.386 611.692 406.386C606.825 406.386 602.36 404.137 602.36 396.603C602.362 386.501 609.708 386.116 611.53 386.116C618.281 386.116 619.994 390.36 620.127 393.181H615.721C615.312 389.977 612.785 389.841 611.749 389.841C610.743 389.841 607.203 390.032 607.203 396.439C607.205 400.055 608.837 402.658 611.885 402.658C614.824 402.658 615.689 400.492 615.884 399.072H620.349ZM595.774 394.281V397.812H586.469V402.11H597.3V405.835H581.979V386.662H597.027V390.389H586.469V394.281H595.774ZM560.291 390.389V386.662H576.295V390.389H570.551V405.835H566.058V390.389H560.291ZM535.637 394.767V398.494H527.744V405.835H523.257V386.662H537.079V390.389H527.744V394.767H535.637ZM511.883 396.248C511.883 394.521 511.693 389.841 507.092 389.841C504.617 389.841 502.331 391.184 502.331 396.248C502.331 401.261 504.617 402.658 507.092 402.658C511.663 402.658 511.883 397.864 511.883 396.248ZM497.461 396.248C497.461 391.784 499.582 386.116 507.092 386.116C513.648 386.116 516.725 390.446 516.725 396.248C516.727 402.055 513.648 406.386 507.092 406.386C499.582 406.386 497.461 400.715 497.461 396.248ZM778.311 360.75H783.213L776.541 372.688V379.917H772.026V372.688L765.142 360.75H770.253L774.285 369.045L778.311 360.75ZM745.737 364.469V360.75H761.74V364.469H756.002V379.917H751.51V364.469H745.737ZM735.48 360.75H739.968V379.917H735.48V360.75ZM717.358 373.698C717.328 374.877 717.957 376.741 721.167 376.741C722.856 376.741 724.567 376.438 724.567 374.773C724.567 372.688 722.038 372.304 719.725 371.783C716.293 371.018 713.438 370.14 713.438 365.869C713.44 362.774 715.509 360.201 721.249 360.201C726.53 360.201 728.431 363.214 728.485 366.006L724.242 366.004C724.136 364.966 723.399 363.924 720.977 363.924C718.746 363.924 718.038 364.797 718.038 365.758C718.038 367.428 720.159 367.788 721.794 368.118C725.793 368.88 729.168 369.895 729.168 374.086C729.168 375.647 728.732 380.469 721.111 380.469C714.088 380.469 712.841 376.25 712.811 373.699H717.358V373.698ZM695.589 369.346H699.696C702.229 369.346 702.579 367.867 702.579 366.939C702.581 365.048 701.467 364.469 699.534 364.469H695.589V369.346ZM691.096 360.75H700.841C702.774 360.75 707.318 361.241 707.318 366.197C707.318 369.43 705.249 370.552 703.997 370.988V371.046C706.64 371.81 706.694 374.304 706.716 375.699C706.773 378.138 706.77 378.934 707.453 379.917H702.882C702.066 378.714 702.364 377.972 702.12 375.043C701.93 372.743 699.558 372.852 699.043 372.852H695.589V379.917H691.096V360.75ZM683.615 368.361V371.894H674.308V376.192H685.137V379.917H669.82V360.75H684.868V364.469H674.308V368.361H683.615ZM659.807 360.75H664.785L658.308 379.917H653.547L647.099 360.75H652.242L656.104 374.44L659.807 360.75ZM637.439 360.75H641.929V379.917H637.439V360.75ZM617.844 367.919V379.917H613.354V360.75H617.898L625.411 372.659H625.493V360.75H629.983V379.917H625.411L617.898 367.919H617.844ZM594.142 360.75V371.922C594.142 375.098 595.096 376.741 597.897 376.741C600.651 376.741 601.652 375.205 601.652 371.924V360.75H606.147V372.659C606.147 374.604 605.871 380.468 597.897 380.468C589.871 380.468 589.654 374.743 589.654 372.661V360.75H594.142ZM563.208 368.361V371.894H553.898V376.192H564.729V379.917H549.408V360.75H564.458V364.469H553.898V368.361H563.208ZM527.72 364.469V360.75H543.722V364.469H537.982V379.917H533.492V364.469H527.72ZM519.174 373.071L516.728 365.757L514.225 373.071H519.174ZM518.986 360.75L526.142 379.917H521.381L520.158 376.329H513.244L512.048 379.917H507.309L514.442 360.75H518.986ZM489.707 364.469V360.75H505.706V364.469H499.964V379.917H495.477V364.469H489.707ZM473.273 373.698C473.244 374.877 473.867 376.741 477.08 376.741C478.769 376.741 480.48 376.438 480.48 374.773C480.48 372.688 477.953 372.304 475.638 371.783C472.206 371.018 469.353 370.14 469.353 365.869C469.353 362.774 471.422 360.201 477.159 360.201C482.441 360.201 484.344 363.214 484.398 366.006L480.157 366.004C480.046 364.966 479.312 363.924 476.885 363.924C474.657 363.924 473.949 364.797 473.949 365.758C473.951 367.428 476.069 367.788 477.707 368.118C481.708 368.88 485.081 369.895 485.081 374.086C485.081 375.647 484.642 380.469 477.023 380.469C470.006 380.469 468.751 376.25 468.724 373.699H473.273V373.698ZM429.131 379.917H424.263L419.231 360.75H423.96L427.037 374.741L430.359 360.75H434.439L437.76 374.741L440.835 360.75H445.569L440.534 379.917H435.665L432.4 365.757L429.131 379.917ZM410.143 370.333C410.143 368.606 409.95 363.923 405.352 363.923C402.876 363.923 400.591 365.268 400.591 370.333C400.591 375.346 402.876 376.741 405.352 376.741C409.921 376.741 410.14 371.949 410.143 370.333ZM395.721 370.333C395.721 365.869 397.842 360.201 405.352 360.201C411.913 360.201 414.983 364.526 414.983 370.333C414.983 376.138 411.913 380.468 405.352 380.468C397.842 380.468 395.721 374.798 395.721 370.333ZM390.551 373.152C390.247 376.029 388.645 380.468 381.896 380.468C377.027 380.468 372.561 378.22 372.561 370.688C372.563 360.583 379.909 360.201 381.731 360.201C388.482 360.201 390.196 364.445 390.331 367.266H385.92C385.516 364.057 382.984 363.923 381.951 363.923C380.945 363.923 377.404 364.115 377.404 370.524C377.404 374.14 379.036 376.741 382.084 376.741C385.028 376.741 385.896 374.577 386.088 373.152H390.551ZM355.339 373.698C355.312 374.877 355.935 376.741 359.146 376.741C360.832 376.741 362.548 376.438 362.548 374.773C362.548 372.688 360.016 372.304 357.703 371.783C354.276 371.018 351.416 370.14 351.416 365.869C351.418 362.774 353.487 360.201 359.23 360.201C364.506 360.201 366.412 363.214 366.469 366.006L362.223 366.004C362.112 364.966 361.377 363.924 358.958 363.924C356.725 363.924 356.014 364.797 356.014 365.758C356.014 367.428 358.14 367.788 359.775 368.118C363.771 368.88 367.147 369.895 367.147 374.086C367.147 375.647 366.713 380.469 359.091 380.469C352.072 380.469 350.819 376.25 350.795 373.699H355.339V373.698ZM340.503 370.333C340.503 368.606 340.316 363.923 335.717 363.923C333.239 363.923 330.956 365.268 330.956 370.333C330.956 375.346 333.239 376.741 335.717 376.741C340.288 376.741 340.503 371.949 340.503 370.333ZM326.084 370.333C326.084 365.869 328.207 360.201 335.717 360.201C342.278 360.201 345.35 364.526 345.35 370.333C345.35 376.138 342.276 380.468 335.717 380.468C328.207 380.468 326.081 374.798 326.084 370.333ZM302.384 366.226H302.298V379.917H297.81V360.75H304.122L308.669 373.922L313.213 360.75H319.528V379.917H315.038V366.226H314.954L310.195 379.917H307.145L302.384 366.226Z" fill="#1B1918"/>
<path fill-rule="evenodd" clip-rule="evenodd" d="M332.046 265.643C316.087 265.643 310.563 268.095 305.602 272.989C300.642 277.885 298.163 283.481 298.163 289.774C298.165 296.072 300.423 301.648 304.965 306.51C309.503 311.371 315.214 313.801 322.107 313.801C327.311 313.801 329.912 315.652 329.912 319.349C329.912 320.722 329.406 321.903 328.386 322.896C327.366 323.886 326.192 324.384 324.862 324.384H297.81V343.083H326.539C332.9 343.083 338.424 340.892 343.106 336.497C348.069 331.827 350.551 326.01 350.551 319.042C350.553 312.006 348.092 306.185 343.166 301.584C338.595 297.263 333.148 295.107 326.817 295.107C321.469 295.104 318.802 293.223 318.802 289.459C318.802 288.067 319.343 286.866 320.43 285.858C321.512 284.846 322.72 284.344 324.055 284.344H381.447V343.083H402.086V284.344H438.818L459.378 265.643H332.046ZM783.143 265.643V344.453L729.693 296.365V343.083H709.054V281.55L726.76 265.643L762.499 298.112V265.643H783.143ZM696.363 263.705V343.13H675.721V282.354L696.363 263.705ZM650.322 265.618H678.62L639.969 302.46L657.04 318.056V344.848L624.849 316.103L615.518 324.588V343.13H594.879V282.54L615.518 263.879V297.353L650.322 265.618ZM583.188 265.643V344.453L529.735 296.365V343.083H509.101V281.55L526.807 265.643L562.549 298.112V265.643H583.188ZM496.291 265.643V343.083H475.65V332.499H438.778L459.492 313.625H475.65V293.164L418.241 344.8V317.511L475.65 265.643H496.291Z" fill="#950A2A"/>
<path fill-rule="evenodd" clip-rule="evenodd" d="M460.564 126.536C463.271 126.814 466.028 127.224 468.793 127.695L509.93 121.528L511.183 113.064C484.38 100.229 452.157 98.311 423.326 100.314C413.072 101.023 402.838 102.269 392.686 103.966H353.581C353.581 103.966 347.223 112.731 335.684 126.735V103.966L282.425 60.0873L252.246 129.043V131.105L204.851 117.804L175.975 131.105V206.423C143.906 232.194 115.132 262.243 93.4504 296.74C77.5361 322.034 65.9496 349.831 65.0463 379.964L66.4236 394.697C66.4236 394.697 67.6272 406.249 76.1588 421.213C84.6904 436.179 93.7184 442.976 93.7184 442.976C109.863 456.868 132.744 464.35 153.358 466.871C180.638 470.202 208.464 468.757 235.525 463.888C287.579 454.55 337.793 434.747 383.826 408.361L395.621 400.839H356.219L342.637 408.361C336.019 411.798 329.349 415.103 322.616 418.272C270.625 442.718 212.534 459.831 154.564 456.146C135.014 454.905 113.904 449.369 97.535 438.011C97.535 438.011 84.4621 431.382 77.9629 420.014C71.4661 408.646 71.7118 394.002 71.7118 394.002L71.816 380.212C76.938 338.244 101.868 301.596 129.994 271.232C144.189 255.915 159.597 241.614 175.973 228.397L175.975 404.83H205.478L204.85 136.522L252.246 149.761V404.83H282.176L282.424 89.3054L335.683 132.522V260.062H353.839L353.581 120.382H396.581V260.062H405.79V126.998C423.946 124.98 442.26 124.658 460.564 126.536ZM560.606 178.979C560.13 175.242 559.169 171.619 558.058 168.038L528.738 155.069L524.417 159.698C524.876 160.303 525.336 160.921 525.805 161.526C525.899 161.698 525.993 161.874 526.092 162.053C530.532 173.019 534.731 182.203 533.887 194.529C532.579 213.932 526.519 232.358 517.71 249.58L546.513 249.851C557.119 227.611 563.72 203.254 560.606 178.979Z" fill="#0A2957"/>
<path fill-rule="evenodd" clip-rule="evenodd" d="M519.194 91.0822L533.567 122.491L578.253 116.171L541.912 138.023L554.355 162.192L527.611 150.384L499.081 180.92L510.419 142.488L437.925 138.185L514.109 125.248L519.194 91.0822Z" fill="#950A2A"/>
</svg>
